<svg width="270" height="120" viewBox="0 0 270 120" fill="none" xmlns="http://www.w3.org/2000/svg">
<rect x="56.2292" y="41.9002" width="2.99373" height="32.0307" transform="rotate(18.5665 56.2292 41.9002)" fill="#FBEF50" stroke="#FBEF50" stroke-width="0.573988"/>
<rect x="63.1108" y="44.2118" width="2.99373" height="22.3517" transform="rotate(18.5665 63.1108 44.2118)" fill="#FBEF50" stroke="#FBEF50" stroke-width="0.573988"/>
<rect x="65.3694" y="60.286" width="2.99373" height="7.83323" transform="rotate(18.5665 65.3694 60.286)" fill="#FBEF50" stroke="#FBEF50" stroke-width="0.573988"/>
<rect x="44.6548" y="83.9593" width="2.99373" height="5.58632" transform="rotate(18.5665 44.6548 83.9593)" fill="#FBEF50" stroke="#FBEF50" stroke-width="0.573988"/>
<rect x="43.9021" y="78.6014" width="2.99373" height="5.41348" transform="rotate(18.5665 43.9021 78.6014)" fill="#FBEF50" stroke="#FBEF50" stroke-width="0.573988"/>
<rect x="43.1492" y="73.2435" width="2.99373" height="5.41348" transform="rotate(18.5665 43.1492 73.2435)" fill="#FBEF50" stroke="#FBEF50" stroke-width="0.573988"/>
<rect x="42.3962" y="67.8851" width="2.99373" height="5.41348" transform="rotate(18.5665 42.3962 67.8851)" fill="#FBEF50" stroke="#FBEF50" stroke-width="0.573988"/>
<rect x="40.8906" y="57.1688" width="2.99373" height="7.83323" transform="rotate(18.5665 40.8906 57.1688)" fill="#FBEF50" stroke="#FBEF50" stroke-width="0.573988"/>
<rect x="40.873" y="64.8211" width="2.99373" height="2.99373" transform="rotate(18.5665 40.873 64.8211)" fill="#FBEF50" stroke="#FBEF50" stroke-width="0.573988"/>
<rect x="47.0015" y="61.7743" width="2.99373" height="2.99373" transform="rotate(18.5665 47.0015 61.7743)" fill="#FBEF50" stroke="#FBEF50" stroke-width="0.573988"/>
<rect x="43.1843" y="57.9393" width="5.41348" height="2.99373" transform="rotate(18.5665 43.1843 57.9393)" fill="#FBEF50" stroke="#FBEF50" stroke-width="0.573988"/>
<rect x="72.2507" y="62.5975" width="2.99373" height="10.253" transform="rotate(18.5665 72.2507 62.5975)" fill="#FBEF50" stroke="#FBEF50" stroke-width="0.573988"/>
<rect x="69.9595" y="84.619" width="2.99373" height="8.00607" transform="rotate(18.5665 69.9595 84.619)" fill="#FBEF50" stroke="#FBEF50" stroke-width="0.573988"/>
<rect x="65.2993" y="90.8939" width="2.99373" height="8.00607" transform="rotate(18.5665 65.2993 90.8939)" fill="#FBEF50" stroke="#FBEF50" stroke-width="0.573988"/>
<rect x="77.5915" y="69.4964" width="2.99373" height="17.3394" transform="rotate(18.5665 77.5915 69.4964)" fill="#FBEF50" stroke="#FBEF50" stroke-width="0.573988"/>
<rect x="74.5447" y="63.368" width="2.99373" height="2.99373" transform="rotate(18.5665 74.5447 63.368)" fill="#FBEF50" stroke="#FBEF50" stroke-width="0.573988"/>
<rect x="76.0681" y="66.432" width="2.99373" height="2.99373" transform="rotate(18.5665 76.0681 66.432)" fill="#FBEF50" stroke="#FBEF50" stroke-width="0.573988"/>
<rect x="59.2934" y="40.3768" width="5.41348" height="2.99373" transform="rotate(18.5665 59.2934 40.3768)" fill="#FBEF50" stroke="#FBEF50" stroke-width="0.573988"/>
<rect x="62.3227" y="54.1576" width="5.41348" height="2.99373" transform="rotate(18.5665 62.3227 54.1576)" fill="#FBEF50" stroke="#FBEF50" stroke-width="0.573988"/>
<rect x="43.0588" y="88.7108" width="22.3517" height="2.99373" transform="rotate(18.5665 43.0588 88.7108)" fill="#FBEF50" stroke="#FBEF50" stroke-width="0.573988"/>
<rect x="66.1399" y="57.992" width="7.83323" height="2.99373" transform="rotate(18.5665 66.1399 57.992)" fill="#FBEF50" stroke="#FBEF50" stroke-width="0.573988"/>
<rect x="64.0044" y="28.2783" width="1.91329" height="10.5231" fill="#FBEF50"/>
<rect x="59.6995" y="34.4966" width="1.91329" height="10.5231" transform="rotate(-90 59.6995 34.4966)" fill="#FBEF50"/>
<rect x="60.564" y="30.4956" width="1.91329" height="10.5231" transform="rotate(-45 60.564 30.4956)" fill="#FBEF50"/>
<rect x="68.0049" y="29.1431" width="1.91329" height="10.5231" transform="rotate(45 68.0049 29.1431)" fill="#FBEF50"/>
<rect x="95" y="66" width="4" height="126" transform="rotate(-90 95 66)" fill="#FBEF50"/>
<path d="M225.384 62.9622C225.723 63.2977 225.723 63.8452 225.384 64.1806L219.96 69.5494C219.419 70.0851 218.5 69.7017 218.5 68.9402V58.2027C218.5 57.4412 219.419 57.0578 219.96 57.5935L225.384 62.9622Z" fill="#FBEF50"/>
</svg>
